<svg xmlns="http://www.w3.org/2000/svg" viewBox="0 0 30 30">
    <path fill="#00be28" d="M 10.5 2 C 5.806 2 2 5.806 2 10.5 C 2 14.693 5.03825 18.168234 9.03125 18.865234 C 9.12025 17.382234 9.5132969 15.982516 10.154297 14.728516 C 8.4792969 14.365516 7.4384531 13.393531 7.0644531 11.894531 L 6.0742188 11.894531 L 6.0742188 10.898438 L 6.9199219 10.898438 C 6.9079219 10.770438 6.9003906 10.641 6.9003906 10.5 C 6.9003906 10.389 6.9061094 10.276875 6.9121094 10.171875 L 6.0742188 10.171875 L 6.0742188 9.1816406 L 7.0488281 9.1816406 C 7.5058281 7.2126406 9.0813281 6.1054688 11.736328 6.1054688 C 12.175328 6.1054688 12.621625 6.1527969 12.890625 6.2167969 L 12.890625 7.9394531 C 12.585625 7.8864531 12.240203 7.8632813 11.783203 7.8632812 C 10.588203 7.8632812 9.7382656 8.3266406 9.3222656 9.1816406 L 12.433594 9.1816406 L 12.433594 10.171875 L 9.0585938 10.171875 C 9.0465937 10.276875 9.0390625 10.389141 9.0390625 10.494141 C 9.0390625 10.635141 9.0455 10.769437 9.0625 10.898438 L 12.431641 10.898438 L 12.431641 11.75 C 14.151641 10.181 16.389281 9.18025 18.863281 9.03125 C 18.167281 5.03925 14.693 2 10.5 2 z M 24 2 L 21 5 L 24 8 L 24 6 L 27 6 L 27 4 L 24 4 L 24 2 z M 19.5 11 C 14.806 11 11 14.806 11 19.5 C 11 24.194 14.806 28 19.5 28 C 24.194 28 28 24.194 28 19.5 C 28 14.806 24.194 11 19.5 11 z M 9.3671875 11.894531 C 9.7111875 12.563531 10.350219 12.962938 11.199219 13.085938 C 11.527219 12.661938 11.885438 12.263531 12.273438 11.894531 L 9.3671875 11.894531 z M 19 14 L 20 14 L 20 15.035156 C 21.719 15.205156 22.878156 16.221109 22.910156 17.662109 L 20.904297 17.662109 C 20.857297 17.058109 20.283531 16.638672 19.519531 16.638672 C 18.755531 16.638672 18.253906 17.000359 18.253906 17.568359 C 18.253906 18.035359 18.63225 18.307375 19.53125 18.484375 L 20.632812 18.697266 C 22.318812 19.023266 23.076172 19.787578 23.076172 21.142578 C 23.076172 22.778578 21.92 23.807797 20 23.966797 L 20 25 L 19 25 L 19 23.970703 C 17.125 23.826703 15.956828 22.855891 15.923828 21.337891 L 17.994141 21.337891 C 18.047141 21.958891 18.669359 22.355469 19.568359 22.355469 C 20.379359 22.355469 20.935547 21.964344 20.935547 21.402344 C 20.935547 20.929344 20.561937 20.673516 19.585938 20.478516 L 18.462891 20.253906 C 16.900891 19.957906 16.095703 19.106672 16.095703 17.763672 C 16.095703 16.233672 17.227 15.197203 19 15.033203 L 19 14 z M 6 21 L 6 23 L 3 23 L 3 25 L 6 25 L 6 27 L 9 24 L 6 21 z"></path>
</svg>